<svg xmlns="http://www.w3.org/2000/svg" width="50" height="50" viewBox="0 0 14 14"><path fill="currentColor" fill-rule="evenodd" d="M6.992 2.606c-.965-.961-1.972-1.438-2.94-1.51c-1.094-.08-2.06.364-2.756 1.066C-.072 3.542-.49 6.037 1.22 7.754a.5.5 0 0 0 .015.014l5.418 5.012a.5.5 0 0 0 .68 0l5.418-5.012l.011-.011c1.734-1.71 1.315-4.205-.06-5.585c-.698-.702-1.667-1.147-2.763-1.068c-.97.07-1.98.543-2.946 1.502Zm-.34 1.982a.625.625 0 0 0-1.128-.043L4.668 6.18H3.515a.625.625 0 0 0 0 1.25h1.531c.233 0 .446-.13.554-.335l.423-.807l1.043 2.42a.625.625 0 0 0 1.06.147L9.282 7.43h1.202a.625.625 0 0 0 0-1.25h-1.5a.625.625 0 0 0-.486.231l-.693.855l-1.154-2.677Z" clip-rule="evenodd"/></svg>